<svg xmlns="http://www.w3.org/2000/svg" width="70" height="70" viewBox="0 0 70 70"><style>.a{fill:#FFF;}</style><path d="M0 29c0.2-6.7 2.2-12.8 6.5-18.1 4.1-5 9.2-8.3 15.5-10 2.6-0.7 5.2-1 7.8-0.9 6 0.2 11.5 2 16.3 5.5 5.3 3.9 8.9 9 10.8 15.3 0.6 2 0.8 4.2 1 6.3 0.6 5.5-0.7 10.6-3.2 15.4 -0.5 0.9-1 1.8-1.6 2.6 -0.2 0.4-0.2 0.5 0.1 0.8 1.9 1.9 3.9 3.9 5.8 5.8 1.9 1.9 3.9 3.8 5.9 5.8 1.4 1.4 2.8 2.7 4 4.2 2.2 2.8 0.9 6.7-2.4 7.9 -2.3 0.9-4.4-0.2-5.8-1.7 -1.5-1.5-3-3-4.5-4.5 -1.2-1.2-2.4-2.5-3.7-3.8 -1.4-1.4-2.9-2.8-4.3-4.3 -0.7-0.7-1.4-1.4-2-2.1 -0.3-0.4-0.5-0.5-1-0.1 -2.7 1.8-5.7 3.2-8.9 3.9 -2.9 0.7-5.9 1-8.9 0.8 -4.7-0.3-9-1.7-13.1-4 -3.2-1.9-5.9-4.3-8.1-7.2 -2.1-2.7-3.7-5.7-4.7-9.1 -0.6-2.1-0.8-4.3-1.2-6.4C0.1 30.5 0.1 29.8 0 29zM28.8 52.9c13.4 0.2 23.9-10.7 24.1-23.4C53.1 15.9 42.1 5.3 29.3 5.2c-13.4-0.1-23.9 10.8-24.1 23.5C5 42.2 16 52.9 28.8 52.9z" class="a"/><path d="M21.2 28.9c-0.8 0.3-1.3-0.1-1.6-0.8 -0.8-1.3-1-2.6-0.9-4.1 0.1-0.8 0.5-1.2 1.4-1.3 -0.1-1.6-0.2-3.2-0.3-4.7 -0.2-2.6 0.8-4.7 3-6.1 2.5-1.6 5.2-2.1 8.1-1.7 1.8 0.2 3.3 0.9 4.6 2.1 0.4 0.4 1.2 0.5 1.7 0.9 1.3 1 2.2 2.4 2.2 4 0 1.4-0.2 2.8-0.3 4.2 0 0.4 0 0.9 0 1.3 0.9 0.1 1.3 0.7 1.3 1.5 0.1 1.4-0.3 2.7-1 3.9 -0.4 0.7-0.8 0.8-1.4 0.7 -0.7 1.3-1.1 2.8-2 3.8 -0.9 1.1-0.9 2.1-0.9 3.3 0 0.6 0.1 0.9 0.8 1.1 3 0.7 5.9 1.4 8.8 2.2 0.5 0.1 0.9 0.4 1.3 0.7 0.8 0.7 0.8 1 0.1 1.8 -3.1 4-7.1 6.7-12.1 7.8 -2.9 0.7-5.9 0.7-8.9 0.2 -3.4-0.7-6.5-2.1-9.2-4.2 -1.3-1-2.3-2.2-3.4-3.4 -0.6-0.6-0.2-1.9 0.8-2.4 0.9-0.5 2-0.7 3-1 2.4-0.6 4.8-1.2 7.2-1.8 0.2 0 0.4-0.4 0.5-0.6 0.1-0.7 0-1.4 0-2.2 0-0.2-0.1-0.5-0.3-0.6 -1.3-1.2-1.9-2.8-2.3-4.4C21.3 29.2 21.2 29.1 21.2 28.9z" class="a"/></svg>
 