<svg xmlns="http://www.w3.org/2000/svg" width="70" height="70" viewBox="0 0 70 70"><style>.a{fill:#FFF;}</style><path d="M2 68.1c0.4-2.7 0.7-5.2 1-7.7 0.3-2.1 0.6-4.2 1-6.3 0.1-0.6 0.4-1.2 0.8-1.6C20.7 36.6 36.6 20.7 52.4 4.9c1.9-1.9 4.7-2 6.7-0.1 2.1 2 4.1 4 6.1 6.1 1.9 2 1.9 4.8-0.1 6.8C49.3 33.5 33.4 49.4 17.5 65.2c-0.6 0.6-1.8 0.9-2.8 1C10.5 66.9 6.3 67.4 2 68.1zM11.6 50.9c2.2 2.1 4.5 4.2 6.6 6.5 0.9 1 1.5 0.9 2.4 0 11.5-11.5 23-23 34.5-34.5 0.2-0.2 0.6-0.4 0.7-0.7 0.1-0.4 0.2-1 0-1.2 -2.4-2.5-4.8-4.9-7.1-7.2C36.3 26.2 24.1 38.4 11.6 50.9zM58.8 19.3c1.5-1.6 2.9-3 4.2-4.4 0.6-0.6 0.4-1.2-0.2-1.7 -2-2-4.1-4-6.1-6.1 -0.7-0.7-1.3-0.7-1.9 0 -1.1 1.1-2.2 2.2-3.3 3.3 -0.5 0.5-0.6 0.9-0.1 1.4C53.9 14.3 56.2 16.7 58.8 19.3zM17 60.8c-2.5-2.5-4.9-4.9-7.4-7.3 -0.2-0.2-0.9-0.1-1.2 0.1 -1.1 0.8-1.3 1.9-1.5 3.2 -0.3 2.3-0.7 4.6-1.1 7.1 0.6 0 0.9 0.1 1.3 0.1 2.2-0.3 4.4-0.8 6.6-1C15.3 62.8 16.1 62 17 60.8z" class="a"/><path d="M20.7 8.5C19.1 7.1 18 6 16.7 4.9c-0.2-0.2-0.8-0.2-0.9 0 -3.8 3.8-7.5 7.5-11.3 11.4 5.4 5.3 10.7 10.6 16.1 16 -0.9 0.9-1.7 1.6-2.3 2.2C12.1 28.3 6 22.2 0 16.2 5.4 10.9 10.8 5.4 16.2 0.1c5.9 6 12 12.1 18.1 18.2 -0.5 0.5-1.3 1.2-2 2 -0.6-0.6-1.2-1.1-2-1.8 -1.1 1.4-2.2 2.7-3.4 4.1 -1-1-1.6-1.7-2.5-2.6 0.9-0.9 2-1.9 2.9-3 0.2-0.3 0.4-1 0.2-1.3 -1.5-1.7-3.1-3.2-4.8-5 -1.3 1.5-2.4 2.8-3.7 4.3 -0.9-1.2-1.5-2-2.3-3.1C17.7 11 19 9.9 20.7 8.5z" class="a"/><path d="M70 53.8c-5.4 5.4-10.8 10.8-16.1 16.1 -5.9-5.9-11.8-11.8-17.9-17.9 0.6-0.5 1.3-1.2 2.3-2.1 5.1 5.2 10.3 10.4 15.3 15.5 4-4 7.9-7.9 11.7-11.8 -1.1-1.1-2.4-2.4-4-3.9 -1 1.2-2.1 2.6-3.3 4.1 -1.1-1.1-1.8-1.9-2.7-2.8 1.3-1.1 2.6-2.2 3.7-3.2 -2-1.9-3.7-3.7-5.6-5.5 -0.9 1-2 2.4-3.2 3.8 -1-1.2-1.7-1.9-2.7-3 1.3-1 2.7-2.1 4.1-3.2 -0.8-0.9-1.3-1.5-1.9-2.1 0.8-0.7 1.5-1.4 2.2-2C57.9 41.7 64 47.8 70 53.8z" class="a"/></svg>