<svg xmlns="http://www.w3.org/2000/svg" width="70" height="70" viewBox="0 0 70 70"><style>.a{fill:#FFF;}</style><path d="M34.5 42.4c2.9-2.9 5.8-5.7 8.6-8.5 1.6-1.6 3.4-2.1 5.2-0.4 1.5 1.4 1.4 3.3-0.5 5.2 -3.5 3.6-7.1 7.2-10.7 10.7 -2.1 2-3.7 2-5.9 0.1 -2.1-1.9-4.2-3.9-6.9-6.4 0 4.9 0 9.2 0 13.5 0 3.5 0 3.5-3.6 3.5C14.8 60 8.8 60 2.9 60.1c-2 0-2.7-0.6-2.7-2.6 0.1-6.3 0-12.6 0.1-18.9 0-4.5 2.8-7.2 7.3-7.3 4.1 0 8.3-0.2 12.4 0.1 1.6 0.1 3.4 0.7 4.5 1.8C28 36 31.1 39.2 34.5 42.4z" class="a"/><path d="M33.9 37.4c-2.3-1.5-3.1-3.5-3-6.1 0.2-5.9 0.1-11.9 0-17.8 0-1.9 0.4-2.7 2.5-2.7 11.4 0.1 22.9 0.1 34.3 0 1.9 0 2.5 0.6 2.5 2.5 -0.1 14.8-0.1 29.6 0 44.3 0 1.7-0.4 2.4-2.3 2.4 -11.6 0-23.3 0-34.9 0 -0.6 0-1.2-0.2-1.9-0.3 0-1.6 0-3.1 0-5 11.1 0 22.1 0 33.3 0 0-12.6 0-24.9 0-37.5 -0.6-0.1-1.3-0.2-2-0.2 -7.9 0-15.9 0-23.8 0 -1.9 0-2.6 0.5-2.5 2.4 0.1 4.3 0.1 8.7 0.2 13C36.4 35 36.1 35.8 33.9 37.4z" class="a"/><path d="M22.6 19.9c0 5-4.2 9.3-9.3 9.3 -5 0-9.3-4.4-9.2-9.4 0-4.9 4.2-9 9.2-9C18.5 10.7 22.6 14.7 22.6 19.9z" class="a"/></svg>
 